# xmcd
#
# Track frame offsets:
#	182
#	16457
#	34977
#	51007
#	68990
#	89897
#	103895
#	117635
#	131130
#	149447
#	170980
#	189047
#	206550
#	225897
#	249912
#	267440
#	281730
#	300340
#	319692
#
# Disc length: 4587 seconds
#
# Revision: 0
# Processed by: cddbd v1.5.2PL0 Copyright (c) Steve Scherf et al.
# Submitted via: EasyCDDAExtractor 10.0.3.1
#
DISCID=1e11e913
DTITLE=Various Artist - RADIO SERIES
DYEAR=1994
DGENRE=
TTITLE0=PAWEŁ ROSAK - Magdalena
TTITLE1=AYA RL - Skóra
TTITLE2=KRYWAŃ - Szalała Szalała
TTITLE3=THE TWINKLE BROTHERS and TREBUNIA FAMILY - Spod Jawora
TTITLE4=CHOCOLATE SPOON - Hey Ho Rock'n'roll
TTITLE5=LADY PANK - Nana
TTITLE6=B.A.D. - Sny
TTITLE7=NO LIMITS - Robin
TTITLE8=JACEK SKUBIKOWSKI - Byłaś Dla Mnie Wodą
TTITLE9=NAZAR - Ecstasy
TTITLE10=ALICJA - Wakacyjna Miłość
TTITLE11=MAJKA JEŻOWSKA - Na Plaży
TTITLE12=ATLANTIS - Nowe Pokolenie
TTITLE13=PLAY and MIX - Beata Z Albatrosa
TTITLE14=BRACIA PANCHO - Najważniejsze W Życiu Jest
TTITLE15=VARIUS MANX - Zanim Zrozumiesz
TTITLE16=EMIGRANCI - Przejdę Przez Ogień
TTITLE17=KAPITAN NEMO - Jacy Delikatni
TTITLE18=DE MONO - Do Końca Świata
EXTD=
EXTT0=
EXTT1=
EXTT2=
EXTT3=
EXTT4=
EXTT5=
EXTT6=
EXTT7=
EXTT8=
EXTT9=
EXTT10=
EXTT11=
EXTT12=
EXTT13=
EXTT14=
EXTT15=
EXTT16=
EXTT17=
EXTT18=
PLAYORDER=
